<svg xmlns="http://www.w3.org/2000/svg" viewBox="0 0 48 48" role="img" aria-hidden="true">
  <defs>
    <linearGradient id="bg" x1="0" y1="0" x2="1" y2="1">
      <stop offset="0%" stop-color="#f4e6c4" />
      <stop offset="100%" stop-color="#c7b0f5" />
    </linearGradient>
  </defs>
  <rect width="48" height="48" rx="10" fill="url(#bg)" stroke="#2b1441" stroke-width="2" />
  <circle cx="24" cy="20" r="8" fill="#7c4bc4" stroke="#2b1441" stroke-width="2" />
  <path
    d="M24 7c-7 0-12 5.4-12 11.8 0 9.6 10.5 19.2 11 19.6.5.5 1.5.5 2 0 .5-.4 11-10 11-19.6C36 12.4 31 7 24 7Zm0 16.4c-3.1 0-5.6-2.4-5.6-5.3 0-3 2.5-5.4 5.6-5.4s5.6 2.4 5.6 5.4c0 2.9-2.5 5.3-5.6 5.3Z"
    fill="#fefaf0" stroke="#2b1441" stroke-width="2"
  />
</svg>
